<svg xmlns="http://www.w3.org/2000/svg" width="21.281" height="21.281" viewBox="0 0 21.281 21.281">
  <g id="vuesax_outline_search-normal" data-name="vuesax/outline/search-normal" transform="translate(-108 -188)">
    <g id="search-normal" transform="translate(108 188)">
      <path id="Vector" d="M8.646,17.291a8.646,8.646,0,1,1,8.646-8.646A8.651,8.651,0,0,1,8.646,17.291Zm0-15.961a7.316,7.316,0,1,0,7.316,7.316A7.323,7.323,0,0,0,8.646,1.33Z" transform="translate(1.108 1.108)" fill="#e0e0e0"/>
      <path id="Vector-2" data-name="Vector" d="M1.923,4.247a1.455,1.455,0,0,1-.2-.018c-.417-.053-1.17-.337-1.6-1.6A2.009,2.009,0,0,1,.345.789,2.014,2.014,0,0,1,2.021,0,2.059,2.059,0,0,1,3.954.958,2.088,2.088,0,0,1,3.679,3.1,2.133,2.133,0,0,1,1.923,4.247ZM1.391,2.208c.151.461.364.692.505.709s.408-.151.683-.55c.257-.381.275-.656.213-.78s-.31-.257-.771-.257a.716.716,0,0,0-.594.239A.709.709,0,0,0,1.391,2.208Z" transform="translate(15.953 15.961)" fill="#e0e0e0"/>
      <path id="Vector-3" data-name="Vector" d="M0,0H21.281V21.281H0Z" fill="none" opacity="0"/>
    </g>
  </g>
</svg>
